<?xml version="1.0" encoding="UTF-8" standalone="no"?>
<!-- Created with Inkscape (http://www.inkscape.org/) -->

<svg
   width="148mm"
   height="148mm"
   viewBox="0 0 148 148"
   version="1.1"
   id="svg5"
   inkscape:version="1.1 (c68e22c387, 2021-05-23)"
   sodipodi:docname="Cuadrado.svg"
   xmlns:inkscape="http://www.inkscape.org/namespaces/inkscape"
   xmlns:sodipodi="http://sodipodi.sourceforge.net/DTD/sodipodi-0.dtd"
   xmlns="http://www.w3.org/2000/svg"
   xmlns:svg="http://www.w3.org/2000/svg">
  <sodipodi:namedview
     id="namedview7"
     pagecolor="#505050"
     bordercolor="#eeeeee"
     borderopacity="1"
     inkscape:pageshadow="0"
     inkscape:pageopacity="0"
     inkscape:pagecheckerboard="0"
     inkscape:document-units="mm"
     showgrid="false"
     inkscape:zoom="0.67081229"
     inkscape:cx="424.11268"
     inkscape:cy="242.24362"
     inkscape:window-width="1680"
     inkscape:window-height="987"
     inkscape:window-x="-8"
     inkscape:window-y="-8"
     inkscape:window-maximized="1"
     inkscape:current-layer="layer1"
     width="209mm"
     inkscape:snap-global="false" />
  <defs
     id="defs2" />
  <g
     inkscape:label="Capa 1"
     inkscape:groupmode="layer"
     id="layer1">
    <path
       style="font-variation-settings:normal;opacity:1;vector-effect:none;fill:#ff0000;fill-opacity:0;stroke-width:1.49073;stroke-linecap:butt;stroke-linejoin:miter;stroke-miterlimit:4;stroke-dasharray:none;stroke-dashoffset:0;stroke-opacity:1;-inkscape-stroke:none;stop-color:#000000;stop-opacity:1"
       d="m 144.35537,566.10471 c 2.79264,-4.61956 178.59794,-294.34144 180.83916,-298.01751 l 2.87547,-4.71639 87.89836,128.39215 c 48.34411,70.61569 95.13437,138.98238 103.97836,151.92598 l 16.08,23.53382 H 339.85311 c -107.8955,0 -195.86947,-0.50312 -195.49774,-1.11805 z"
       id="path2398"
       transform="scale(0.26458333)" />
    <path
       style="font-variation-settings:normal;opacity:1;vector-effect:none;fill:#999999;fill-opacity:0;stroke-width:1.49073;stroke-linecap:butt;stroke-linejoin:miter;stroke-miterlimit:4;stroke-dasharray:none;stroke-dashoffset:0;stroke-opacity:1;-inkscape-stroke:none;stop-color:#000000;stop-opacity:1"
       d="m 144.35537,566.10471 c 2.79264,-4.61956 178.59794,-294.34144 180.83916,-298.01751 l 2.87547,-4.71639 87.89836,128.39215 c 48.34411,70.61569 95.13437,138.98238 103.97836,151.92598 l 16.08,23.53382 H 339.85311 c -107.8955,0 -195.86947,-0.50312 -195.49774,-1.11805 z"
       id="path2474"
       transform="scale(0.26458333)" />
    <path
       style="font-variation-settings:normal;opacity:1;vector-effect:none;fill:#999999;fill-opacity:0;stroke-width:1.49073;stroke-linecap:butt;stroke-linejoin:miter;stroke-miterlimit:4;stroke-dasharray:none;stroke-dashoffset:0;stroke-opacity:1;-inkscape-stroke:none;stop-color:#000000;stop-opacity:1"
       d="M 455.41801,561.19212 C 405.81397,560.61565 284.0586,559.30892 184.85052,558.28827 85.642438,557.26761 4.3098629,556.29419 4.1114631,556.12513 3.8050656,555.86404 261.59154,32.937791 272.29058,12.117155 L 276.02246,4.8548198 417.72559,277.4671 c 77.93674,149.93674 143.13502,275.46329 144.88509,278.94787 l 3.18195,6.3356 -10.09273,-0.25517 c -5.55099,-0.14033 -50.67785,-0.72682 -100.28189,-1.30328 z"
       id="path5181"
       transform="scale(0.26458333)" />
    <path
       style="font-variation-settings:normal;opacity:1;vector-effect:none;fill:#ff0000;fill-opacity:0;stroke-width:1.49073;stroke-linecap:butt;stroke-linejoin:miter;stroke-miterlimit:4;stroke-dasharray:none;stroke-dashoffset:0;stroke-opacity:1;-inkscape-stroke:none;stop-color:#000000;stop-opacity:1"
       d="M 455.41801,561.19212 C 405.81397,560.61565 284.0586,559.30892 184.85052,558.28827 85.642438,557.26761 4.3098629,556.29419 4.1114631,556.12513 3.8050656,555.86404 261.59154,32.937791 272.29058,12.117155 L 276.02246,4.8548198 417.72559,277.4671 c 77.93674,149.93674 143.13502,275.46329 144.88509,278.94787 l 3.18195,6.3356 -10.09273,-0.25517 c -5.55099,-0.14033 -50.67785,-0.72682 -100.28189,-1.30328 z"
       id="path5220"
       transform="scale(0.26458333)" />
    <path
       style="font-variation-settings:normal;opacity:1;vector-effect:none;fill:#999999;fill-opacity:0;stroke-width:1.49073;stroke-linecap:butt;stroke-linejoin:miter;stroke-miterlimit:4;stroke-dasharray:none;stroke-dashoffset:0;stroke-opacity:1;-inkscape-stroke:none;stop-color:#000000;stop-opacity:1"
       d="M 455.41801,561.19212 C 405.81397,560.61565 284.0586,559.30892 184.85052,558.28827 85.642438,557.26761 4.3098629,556.29419 4.1114631,556.12513 3.8050656,555.86404 261.59154,32.937791 272.29058,12.117155 L 276.02246,4.8548198 417.72559,277.4671 c 77.93674,149.93674 143.13502,275.46329 144.88509,278.94787 l 3.18195,6.3356 -10.09273,-0.25517 c -5.55099,-0.14033 -50.67785,-0.72682 -100.28189,-1.30328 z"
       id="path5296"
       transform="scale(0.26458333)" />
    <path
       style="font-variation-settings:normal;opacity:1;vector-effect:none;fill:#999999;fill-opacity:0;stroke-width:1.49073;stroke-linecap:butt;stroke-linejoin:miter;stroke-miterlimit:4;stroke-dasharray:none;stroke-dashoffset:0;stroke-opacity:1;-inkscape-stroke:none;stop-color:#000000;stop-opacity:1"
       d="M 455.41801,561.19212 C 405.81397,560.61565 284.0586,559.30892 184.85052,558.28827 85.642438,557.26761 4.3098629,556.29419 4.1114631,556.12513 3.8050656,555.86404 261.59154,32.937791 272.29058,12.117155 L 276.02246,4.8548198 417.72559,277.4671 c 77.93674,149.93674 143.13502,275.46329 144.88509,278.94787 l 3.18195,6.3356 -10.09273,-0.25517 c -5.55099,-0.14033 -50.67785,-0.72682 -100.28189,-1.30328 z"
       id="path5335"
       transform="scale(0.26458333)" />
    <path
       style="font-variation-settings:normal;opacity:1;vector-effect:none;fill:#999999;fill-opacity:0;stroke-width:1.49073;stroke-linecap:butt;stroke-linejoin:miter;stroke-miterlimit:4;stroke-dasharray:none;stroke-dashoffset:0;stroke-opacity:1;-inkscape-stroke:none;stop-color:#000000;stop-opacity:1"
       d="M 455.41801,561.19212 C 405.81397,560.61565 284.0586,559.30892 184.85052,558.28827 85.642438,557.26761 4.3098629,556.29419 4.1114631,556.12513 3.8050656,555.86404 261.59154,32.937791 272.29058,12.117155 L 276.02246,4.8548198 417.72559,277.4671 c 77.93674,149.93674 143.13502,275.46329 144.88509,278.94787 l 3.18195,6.3356 -10.09273,-0.25517 c -5.55099,-0.14033 -50.67785,-0.72682 -100.28189,-1.30328 z"
       id="path5374"
       transform="scale(0.26458333)" />
    <path
       style="font-variation-settings:normal;opacity:1;vector-effect:none;fill:#ff0000;fill-opacity:0;stroke-width:1.49073;stroke-linecap:butt;stroke-linejoin:miter;stroke-miterlimit:4;stroke-dasharray:none;stroke-dashoffset:0;stroke-opacity:1;-inkscape-stroke:none;stop-color:#000000;stop-opacity:1"
       d="M 455.41801,561.19212 C 405.81397,560.61565 284.0586,559.30892 184.85052,558.28827 85.642438,557.26761 4.3098629,556.29419 4.1114631,556.12513 3.8050656,555.86404 261.59154,32.937791 272.29058,12.117155 L 276.02246,4.8548198 417.72559,277.4671 c 77.93674,149.93674 143.13502,275.46329 144.88509,278.94787 l 3.18195,6.3356 -10.09273,-0.25517 c -5.55099,-0.14033 -50.67785,-0.72682 -100.28189,-1.30328 z"
       id="path5413"
       transform="scale(0.26458333)" />
    <path
       style="font-variation-settings:normal;opacity:1;vector-effect:none;fill:#999999;fill-opacity:0;stroke-width:1.49073;stroke-linecap:butt;stroke-linejoin:miter;stroke-miterlimit:4;stroke-dasharray:none;stroke-dashoffset:0;stroke-opacity:1;-inkscape-stroke:none;stop-color:#000000;stop-opacity:1"
       d="M 455.41801,561.19212 C 405.81397,560.61565 284.0586,559.30892 184.85052,558.28827 85.642438,557.26761 4.3098629,556.29419 4.1114631,556.12513 3.8050656,555.86404 261.59154,32.937791 272.29058,12.117155 L 276.02246,4.8548198 417.72559,277.4671 c 77.93674,149.93674 143.13502,275.46329 144.88509,278.94787 l 3.18195,6.3356 -10.09273,-0.25517 c -5.55099,-0.14033 -50.67785,-0.72682 -100.28189,-1.30328 z"
       id="path5489"
       transform="scale(0.26458333)" />
    <path
       style="font-variation-settings:normal;opacity:1;vector-effect:none;fill:#999999;fill-opacity:0;stroke-width:1.49073;stroke-linecap:butt;stroke-linejoin:miter;stroke-miterlimit:4;stroke-dasharray:none;stroke-dashoffset:0;stroke-opacity:1;-inkscape-stroke:none;stop-color:#000000;stop-opacity:1"
       d="M 455.41801,561.19212 C 405.81397,560.61565 284.0586,559.30892 184.85052,558.28827 85.642438,557.26761 4.3098629,556.29419 4.1114631,556.12513 3.8050656,555.86404 261.59154,32.937791 272.29058,12.117155 L 276.02246,4.8548198 417.72559,277.4671 c 77.93674,149.93674 143.13502,275.46329 144.88509,278.94787 l 3.18195,6.3356 -10.09273,-0.25517 c -5.55099,-0.14033 -50.67785,-0.72682 -100.28189,-1.30328 z"
       id="path5585"
       transform="scale(0.26458333)" />
    <path
       style="font-variation-settings:normal;opacity:1;vector-effect:none;fill:#999999;fill-opacity:0;stroke-width:1.49073;stroke-linecap:butt;stroke-linejoin:miter;stroke-miterlimit:4;stroke-dasharray:none;stroke-dashoffset:0;stroke-opacity:1;-inkscape-stroke:none;stop-color:#000000;stop-opacity:1"
       d="M 455.41801,561.19212 C 405.81397,560.61565 284.0586,559.30892 184.85052,558.28827 85.642438,557.26761 4.3098629,556.29419 4.1114631,556.12513 3.8050656,555.86404 261.59154,32.937791 272.29058,12.117155 L 276.02246,4.8548198 417.72559,277.4671 c 77.93674,149.93674 143.13502,275.46329 144.88509,278.94787 l 3.18195,6.3356 -10.09273,-0.25517 c -5.55099,-0.14033 -50.67785,-0.72682 -100.28189,-1.30328 z"
       id="path5624"
       transform="scale(0.26458333)" />
    <path
       style="font-variation-settings:normal;opacity:1;vector-effect:none;fill:#ff0000;fill-opacity:1;stroke-width:0.247749;stroke-linecap:butt;stroke-linejoin:miter;stroke-miterlimit:4;stroke-dasharray:none;stroke-dashoffset:0;stroke-opacity:1;-inkscape-stroke:none;stop-color:#000000;stop-opacity:1"
       d="m 103.64912,117.88241 c -8.642004,-0.0914 -31.152782,0.17411 -48.436807,0.0123 -17.284017,-0.16181 -29.635763,0.15654 -29.670333,0.12974 -0.0534,-0.0414 44.338723,-83.889357 46.20271,-87.190178 l 0.650166,-1.151341 24.687504,43.218863 c 13.57813,23.770371 24.93697,43.670856 25.24186,44.223286 l 0.55436,1.00442 -1.75835,-0.0405 c -0.9671,-0.0222 -8.8291,-0.11523 -17.47111,-0.20662 z"
       id="path5663"
       sodipodi:nodetypes="sssscssccss" />
  </g>
</svg>
